<svg xmlns="http://www.w3.org/2000/svg" viewBox="0 0 1200 340" width="1200" height="340" role="img" aria-label="Liftr — log a set, watch your rank move">
  <defs>
    <linearGradient id="bg" x1="0" y1="0" x2="1" y2="1">
      <stop offset="0%" stop-color="#0a0c14"/>
      <stop offset="100%" stop-color="#141826"/>
    </linearGradient>
    <linearGradient id="wordmark" x1="0" y1="0" x2="1" y2="0">
      <stop offset="0%" stop-color="#ffffff"/>
      <stop offset="100%" stop-color="#8fb4ff"/>
    </linearGradient>
    <radialGradient id="glow" cx="50%" cy="50%" r="50%">
      <stop offset="0%" stop-color="#8fb4ff" stop-opacity="0.55"/>
      <stop offset="100%" stop-color="#8fb4ff" stop-opacity="0"/>
    </radialGradient>
  </defs>

  <rect width="1200" height="340" rx="20" fill="url(#bg)"/>

  <!-- wordmark -->
  <text x="60" y="140" font-family="'Segoe UI','Helvetica Neue',Arial,sans-serif" font-weight="800" font-size="86" letter-spacing="4" fill="url(#wordmark)">LIFTR</text>
  <text x="64" y="182" font-family="'Segoe UI',Arial,sans-serif" font-weight="400" font-size="22" fill="#9aa4bf">log a set. watch your rank move.</text>

  <!-- tier ladder: the real 9-tier ladder (Initiate -> Apex), growing left to right. Icon paths
       match packages/client/src/lib/tierIcons.ts's TIER_BADGE_PATH exactly, so this stays the
       same badge a rank-up actually shows in the app. No per-badge labels here (9 names in this
       width gets cramped) — the README's own ladder table spells out what each tier means. -->
  <g>
    <!-- initiate -->
    <g transform="translate(60,245)">
      <circle cx="14" cy="14" r="14" fill="#1c2028"/>
      <path transform="translate(7.8,7.8) scale(0.52)" d="M12 9a3 3 0 110 6 3 3 0 010-6z" fill="#6b7280"/>
    </g>
    <!-- apprentice -->
    <g transform="translate(119,239)">
      <circle cx="17" cy="17" r="17" fill="#3a2109"/>
      <path transform="translate(9.4,9.4) scale(0.63)" d="M12 3l2 4 4 .5-3 3 .8 4L12 16l-3.8 2.5.8-4-3-3 4-.5z" fill="#e08a3c"/>
    </g>
    <!-- trainee -->
    <g transform="translate(170,233)">
      <circle cx="20" cy="20" r="20" fill="#1f2937"/>
      <path transform="translate(11.1,11.1) scale(0.74)" d="M12 4l7 6-1.4 1.4L12 6.8 6.4 11.4 5 10zM12 12l7 6-1.4 1.4L12 14.8l-5.6 4.6L5 18z" fill="#9fb0d0"/>
    </g>
    <!-- athlete -->
    <g transform="translate(227,227)">
      <circle cx="23" cy="23" r="23" fill="#232a38"/>
      <path transform="translate(12.8,12.8) scale(0.85)" d="M12 2l7 3v6c0 5-3.5 8.5-7 10-3.5-1.5-7-5-7-10V5z" fill="#c7d1e4"/>
    </g>
    <!-- lifter -->
    <g transform="translate(290,221)">
      <circle cx="26" cy="26" r="26" fill="#0f3328"/>
      <path transform="translate(14.4,14.4) scale(0.96)" d="M4 20c0-6 3-9 8-9M4 20h4M8 4c4 0 6 3 6 6 0 2-1 3-2 4l4 6-3 1-4-6" fill="none" stroke="#5fd4a0" stroke-width="1.6" stroke-linecap="round" stroke-linejoin="round"/>
    </g>
    <!-- advanced -->
    <g transform="translate(359,215)">
      <circle cx="29" cy="29" r="29" fill="#3a2a04"/>
      <path transform="translate(16.1,16.1) scale(1.07)" d="M12 2a4.5 4.5 0 110 9 4.5 4.5 0 010-9zM9.3 10.5L6 21l6-3.2 6 3.2-3.3-10.5" fill="#ffd24a"/>
    </g>
    <!-- elite -->
    <g transform="translate(435,207)">
      <circle cx="33" cy="33" r="33" fill="#0d2f33"/>
      <path transform="translate(18.3,18.3) scale(1.22)" d="M12 2 3 9l9 13 9-13z" fill="#6ff0e6"/>
    </g>
    <!-- expert -->
    <g transform="translate(519,199)">
      <circle cx="37" cy="37" r="37" fill="#2a1f3d"/>
      <path transform="translate(20.6,20.6) scale(1.37)" d="M12 4c-3 2-4 6-3 10M12 4c3 2 4 6 3 10M12 4v14" fill="none" stroke="#c99bf0" stroke-width="1.6" stroke-linecap="round"/>
    </g>
    <!-- apex -->
    <g transform="translate(612,189)">
      <circle cx="42" cy="42" r="66" fill="url(#glow)"/>
      <circle cx="42" cy="42" r="42" fill="#152449"/>
      <path transform="translate(23.3,23.3) scale(1.56)" d="M4 18h16l-1.2-8.5-3.8 3.8-3-6.3-3 6.3-3.8-3.8z" fill="#8fb4ff"/>
    </g>
  </g>

  <!-- overall-rank stat tile, right side -->
  <g transform="translate(880,64)">
    <rect width="260" height="150" rx="16" fill="#1c2233" stroke="#28304a"/>
    <text x="22" y="36" font-size="13" fill="#7a86a8" letter-spacing="1">OVERALL RANK</text>
    <text x="22" y="86" font-family="'Segoe UI',Arial,sans-serif" font-weight="800" font-size="34" fill="#ffd24a">ADVANCED II</text>
    <text x="22" y="118" font-size="13" fill="#9aa4bf">Personal best: Elite I</text>
    <rect x="22" y="130" width="216" height="6" rx="3" fill="#28304a"/>
    <rect x="22" y="130" width="146" height="6" rx="3" fill="#ffd24a"/>
  </g>
</svg>
