<svg xmlns="http://www.w3.org/2000/svg" viewBox="0 0 1200 340" width="1200" height="340" role="img" aria-label="Liftr — log a set, watch your rank move">
  <defs>
    <linearGradient id="bg" x1="0" y1="0" x2="1" y2="1">
      <stop offset="0%" stop-color="#0a0c14"/>
      <stop offset="100%" stop-color="#0e0d20"/>
    </linearGradient>
    <radialGradient id="wash" cx="20%" cy="20%" r="60%">
      <stop offset="0%" stop-color="rgba(138,109,255,0.10)"/>
      <stop offset="100%" stop-color="rgba(138,109,255,0)"/>
    </radialGradient>
    <linearGradient id="wordmark" x1="0" y1="0" x2="1" y2="0">
      <stop offset="0%" stop-color="#2f9fe0"/>
      <stop offset="55%" stop-color="#8a6dff"/>
      <stop offset="100%" stop-color="#d63aff"/>
    </linearGradient>
    <linearGradient id="nebula" gradientUnits="userSpaceOnUse" x1="93" y1="389" x2="420" y2="123">
      <stop offset="0%" stop-color="#2f9fe0"/>
      <stop offset="55%" stop-color="#8a6dff"/>
      <stop offset="100%" stop-color="#d63aff"/>
    </linearGradient>
    <radialGradient id="glow" cx="50%" cy="50%" r="50%">
      <stop offset="0%" stop-color="#8fb4ff" stop-opacity="0.55"/>
      <stop offset="100%" stop-color="#8fb4ff" stop-opacity="0"/>
    </radialGradient>
  </defs>

  <rect width="1200" height="340" rx="20" fill="url(#bg)"/>
  <rect width="1200" height="340" rx="20" fill="url(#wash)"/>

  <!-- mark: Stride-L, same geometry as packages/client/public/icons/icon-master.svg -->
  <g transform="translate(34,20.6) scale(0.28)">
    <path d="M 120 150 L 120 362 L 216 362 L 320 258" fill="none" stroke="url(#nebula)" stroke-width="54" stroke-linecap="round" stroke-linejoin="round"/>
    <circle cx="386" cy="192" r="34" fill="url(#nebula)"/>
  </g>

  <!-- wordmark -->
  <text x="170" y="140" font-family="'Unbounded',system-ui,sans-serif" font-weight="800" font-size="86" letter-spacing="4" fill="url(#wordmark)">LIFTR</text>
  <text x="174" y="182" font-family="'Hanken Grotesk',system-ui,sans-serif" font-weight="400" font-size="22" fill="#9aa4bf">log a set. watch your rank move.</text>

  <!-- tier ladder: real "Orbit" emblem geometry (lib/tierEmblem.ts's buildTierEmblem, the same
       module TierBadge.vue/shareCard.ts use) rendered at 44px, evenly spaced 91px apart
       to leave room for wing overflow — generated by scripts/gen-banner-emblems.ts, not hand-drawn.
       No per-badge labels here (9 names in this width gets cramped) — the README's own ladder
       table spells out what each tier means. -->
  <defs>
    <radialGradient id="be-initiate-g0"><stop offset="0" stop-color="#5a6a88" stop-opacity="0.122"/><stop offset="1" stop-color="#5a6a88" stop-opacity="0"/></radialGradient>
    <linearGradient id="be-initiate-g1" gradientUnits="userSpaceOnUse" x1="18" y1="2" x2="110" y2="126"><stop offset="0" stop-color="#78859f"/><stop offset="1" stop-color="#202839"/></linearGradient>
    <linearGradient id="be-initiate-g2" gradientUnits="userSpaceOnUse" x1="18" y1="2" x2="110" y2="126"><stop offset="0" stop-color="#8a99b5"/><stop offset="1" stop-color="#3b475e"/></linearGradient>
    <linearGradient id="be-initiate-g3" gradientUnits="userSpaceOnUse" x1="18" y1="2" x2="110" y2="126"><stop offset="0" stop-color="#8d9cb8"/><stop offset="1" stop-color="#2a3448"/></linearGradient>
    <radialGradient id="be-apprentice-g0"><stop offset="0" stop-color="#5f86b8" stop-opacity="0.154"/><stop offset="1" stop-color="#5f86b8" stop-opacity="0"/></radialGradient>
    <linearGradient id="be-apprentice-g1" gradientUnits="userSpaceOnUse" x1="18" y1="2" x2="110" y2="126"><stop offset="0" stop-color="#839dbc"/><stop offset="1" stop-color="#23334a"/></linearGradient>
    <linearGradient id="be-apprentice-g2" gradientUnits="userSpaceOnUse" x1="18" y1="2" x2="110" y2="126"><stop offset="0" stop-color="#5e7695"/><stop offset="1" stop-color="#23334a"/></linearGradient>
    <linearGradient id="be-apprentice-g3" gradientUnits="userSpaceOnUse" x1="18" y1="2" x2="110" y2="126"><stop offset="0" stop-color="#96b5d9"/><stop offset="1" stop-color="#3f5a7f"/></linearGradient>
    <linearGradient id="be-apprentice-g4" gradientUnits="userSpaceOnUse" x1="18" y1="2" x2="110" y2="126"><stop offset="0" stop-color="#99b8db"/><stop offset="1" stop-color="#2d4260"/></linearGradient>
    <radialGradient id="be-trainee-g0"><stop offset="0" stop-color="#3fa0c4" stop-opacity="0.186"/><stop offset="1" stop-color="#3fa0c4" stop-opacity="0"/></radialGradient>
    <linearGradient id="be-trainee-g1" gradientUnits="userSpaceOnUse" x1="18" y1="2" x2="110" y2="126"><stop offset="0" stop-color="#78b0c7"/><stop offset="1" stop-color="#174055"/></linearGradient>
    <linearGradient id="be-trainee-g2" gradientUnits="userSpaceOnUse" x1="18" y1="2" x2="110" y2="126"><stop offset="0" stop-color="#5189a1"/><stop offset="1" stop-color="#174055"/></linearGradient>
    <linearGradient id="be-trainee-g3" gradientUnits="userSpaceOnUse" x1="18" y1="2" x2="110" y2="126"><stop offset="0" stop-color="#2d647f"/><stop offset="1" stop-color="#174055"/></linearGradient>
    <linearGradient id="be-trainee-g4" gradientUnits="userSpaceOnUse" x1="18" y1="2" x2="110" y2="126"><stop offset="0" stop-color="#87cae2"/><stop offset="1" stop-color="#296f8d"/></linearGradient>
    <linearGradient id="be-trainee-g5" gradientUnits="userSpaceOnUse" x1="18" y1="2" x2="110" y2="126"><stop offset="0" stop-color="#8ccde4"/><stop offset="1" stop-color="#1d5470"/></linearGradient>
    <radialGradient id="be-athlete-g0"><stop offset="0" stop-color="#2f9fe0" stop-opacity="0.218"/><stop offset="1" stop-color="#2f9fe0" stop-opacity="0"/></radialGradient>
    <linearGradient id="be-athlete-g1" gradientUnits="userSpaceOnUse" x1="18" y1="2" x2="110" y2="126"><stop offset="0" stop-color="#278bc7"/><stop offset="1" stop-color="#0d2c3f"/></linearGradient>
    <linearGradient id="be-athlete-g2" gradientUnits="userSpaceOnUse" x1="18" y1="2" x2="110" y2="126"><stop offset="0" stop-color="#278bc7"/><stop offset="1" stop-color="#0d2c3f"/></linearGradient>
    <linearGradient id="be-athlete-g3" gradientUnits="userSpaceOnUse" x1="18" y1="2" x2="110" y2="126"><stop offset="0" stop-color="#7dbadc"/><stop offset="1" stop-color="#144e73"/></linearGradient>
    <linearGradient id="be-athlete-g4" gradientUnits="userSpaceOnUse" x1="18" y1="2" x2="110" y2="126"><stop offset="0" stop-color="#5398c1"/><stop offset="1" stop-color="#144e73"/></linearGradient>
    <linearGradient id="be-athlete-g5" gradientUnits="userSpaceOnUse" x1="18" y1="2" x2="110" y2="126"><stop offset="0" stop-color="#2b78a9"/><stop offset="1" stop-color="#144e73"/></linearGradient>
    <linearGradient id="be-athlete-g6" gradientUnits="userSpaceOnUse" x1="18" y1="2" x2="110" y2="126"><stop offset="0" stop-color="#1a6a9e"/><stop offset="1" stop-color="#144e73"/></linearGradient>
    <linearGradient id="be-athlete-g7" gradientUnits="userSpaceOnUse" x1="18" y1="2" x2="110" y2="126"><stop offset="0" stop-color="#8acef1"/><stop offset="1" stop-color="#217db5"/></linearGradient>
    <linearGradient id="be-athlete-g8" gradientUnits="userSpaceOnUse" x1="18" y1="2" x2="110" y2="126"><stop offset="0" stop-color="#90d1f2"/><stop offset="1" stop-color="#1a6a9e"/></linearGradient>
    <radialGradient id="be-lifter-g0"><stop offset="0" stop-color="#3b8cff" stop-opacity="0.25"/><stop offset="1" stop-color="#3b8cff" stop-opacity="0"/></radialGradient>
    <linearGradient id="be-lifter-g1" gradientUnits="userSpaceOnUse" x1="18" y1="2" x2="110" y2="126"><stop offset="0" stop-color="#3079e4"/><stop offset="1" stop-color="#0f2246"/></linearGradient>
    <linearGradient id="be-lifter-g2" gradientUnits="userSpaceOnUse" x1="18" y1="2" x2="110" y2="126"><stop offset="0" stop-color="#3079e4"/><stop offset="1" stop-color="#0f2246"/></linearGradient>
    <linearGradient id="be-lifter-g3" gradientUnits="userSpaceOnUse" x1="18" y1="2" x2="110" y2="126"><stop offset="0" stop-color="#86aeea"/><stop offset="1" stop-color="#184185"/></linearGradient>
    <linearGradient id="be-lifter-g4" gradientUnits="userSpaceOnUse" x1="18" y1="2" x2="110" y2="126"><stop offset="0" stop-color="#5a8ad4"/><stop offset="1" stop-color="#184185"/></linearGradient>
    <linearGradient id="be-lifter-g5" gradientUnits="userSpaceOnUse" x1="18" y1="2" x2="110" y2="126"><stop offset="0" stop-color="#316ac1"/><stop offset="1" stop-color="#184185"/></linearGradient>
    <linearGradient id="be-lifter-g6" gradientUnits="userSpaceOnUse" x1="18" y1="2" x2="110" y2="126"><stop offset="0" stop-color="#1f5bb8"/><stop offset="1" stop-color="#184185"/></linearGradient>
    <linearGradient id="be-lifter-g7" gradientUnits="userSpaceOnUse" x1="18" y1="2" x2="110" y2="126"><stop offset="0" stop-color="#2c66be"/><stop offset="1" stop-color="#184185"/></linearGradient>
    <linearGradient id="be-lifter-g8" gradientUnits="userSpaceOnUse" x1="18" y1="2" x2="110" y2="126"><stop offset="0" stop-color="#95c1ff"/><stop offset="1" stop-color="#296cd1"/></linearGradient>
    <linearGradient id="be-lifter-g9" gradientUnits="userSpaceOnUse" x1="18" y1="2" x2="110" y2="126"><stop offset="0" stop-color="#9bc4ff"/><stop offset="1" stop-color="#1f5bb8"/></linearGradient>
    <radialGradient id="be-advanced-g0"><stop offset="0" stop-color="#6b74ff" stop-opacity="0.282"/><stop offset="1" stop-color="#6b74ff" stop-opacity="0"/></radialGradient>
    <linearGradient id="be-advanced-g1" gradientUnits="userSpaceOnUse" x1="18" y1="2" x2="110" y2="126"><stop offset="0" stop-color="#5862ea"/><stop offset="1" stop-color="#171d4e"/></linearGradient>
    <linearGradient id="be-advanced-g2" gradientUnits="userSpaceOnUse" x1="18" y1="2" x2="110" y2="126"><stop offset="0" stop-color="#535ce4"/><stop offset="1" stop-color="#171d4e"/></linearGradient>
    <linearGradient id="be-advanced-g3" gradientUnits="userSpaceOnUse" x1="18" y1="2" x2="110" y2="126"><stop offset="0" stop-color="#5862ea"/><stop offset="1" stop-color="#171d4e"/></linearGradient>
    <linearGradient id="be-advanced-g4" gradientUnits="userSpaceOnUse" x1="18" y1="2" x2="110" y2="126"><stop offset="0" stop-color="#535ce4"/><stop offset="1" stop-color="#171d4e"/></linearGradient>
    <linearGradient id="be-advanced-g5" gradientUnits="userSpaceOnUse" x1="18" y1="2" x2="110" y2="126"><stop offset="0" stop-color="#9aa0ee"/><stop offset="1" stop-color="#2a3291"/></linearGradient>
    <linearGradient id="be-advanced-g6" gradientUnits="userSpaceOnUse" x1="18" y1="2" x2="110" y2="126"><stop offset="0" stop-color="#7179de"/><stop offset="1" stop-color="#2a3291"/></linearGradient>
    <linearGradient id="be-advanced-g7" gradientUnits="userSpaceOnUse" x1="18" y1="2" x2="110" y2="126"><stop offset="0" stop-color="#4b54cf"/><stop offset="1" stop-color="#2a3291"/></linearGradient>
    <linearGradient id="be-advanced-g8" gradientUnits="userSpaceOnUse" x1="18" y1="2" x2="110" y2="126"><stop offset="0" stop-color="#3a44c8"/><stop offset="1" stop-color="#2a3291"/></linearGradient>
    <linearGradient id="be-advanced-g9" gradientUnits="userSpaceOnUse" x1="18" y1="2" x2="110" y2="126"><stop offset="0" stop-color="#4650cd"/><stop offset="1" stop-color="#2a3291"/></linearGradient>
    <linearGradient id="be-advanced-g10" gradientUnits="userSpaceOnUse" x1="18" y1="2" x2="110" y2="126"><stop offset="0" stop-color="#6972db"/><stop offset="1" stop-color="#2a3291"/></linearGradient>
    <linearGradient id="be-advanced-g11" gradientUnits="userSpaceOnUse" x1="18" y1="2" x2="110" y2="126"><stop offset="0" stop-color="#adb3ff"/><stop offset="1" stop-color="#4b55db"/></linearGradient>
    <linearGradient id="be-advanced-g12" gradientUnits="userSpaceOnUse" x1="18" y1="2" x2="110" y2="126"><stop offset="0" stop-color="#b1b7ff"/><stop offset="1" stop-color="#3a44c8"/></linearGradient>
    <radialGradient id="be-elite-g0"><stop offset="0" stop-color="#8a6dff" stop-opacity="0.314"/><stop offset="1" stop-color="#8a6dff" stop-opacity="0"/></radialGradient>
    <linearGradient id="be-elite-g1" gradientUnits="userSpaceOnUse" x1="18" y1="2" x2="110" y2="126"><stop offset="0" stop-color="#785eef"/><stop offset="1" stop-color="#231a52"/></linearGradient>
    <linearGradient id="be-elite-g2" gradientUnits="userSpaceOnUse" x1="18" y1="2" x2="110" y2="126"><stop offset="0" stop-color="#7359ea"/><stop offset="1" stop-color="#231a52"/></linearGradient>
    <linearGradient id="be-elite-g3" gradientUnits="userSpaceOnUse" x1="18" y1="2" x2="110" y2="126"><stop offset="0" stop-color="#785eef"/><stop offset="1" stop-color="#231a52"/></linearGradient>
    <linearGradient id="be-elite-g4" gradientUnits="userSpaceOnUse" x1="18" y1="2" x2="110" y2="126"><stop offset="0" stop-color="#7359ea"/><stop offset="1" stop-color="#231a52"/></linearGradient>
    <linearGradient id="be-elite-g5" gradientUnits="userSpaceOnUse" x1="18" y1="2" x2="110" y2="126"><stop offset="0" stop-color="#ac9ef2"/><stop offset="1" stop-color="#42329a"/></linearGradient>
    <linearGradient id="be-elite-g6" gradientUnits="userSpaceOnUse" x1="18" y1="2" x2="110" y2="126"><stop offset="0" stop-color="#8978e5"/><stop offset="1" stop-color="#42329a"/></linearGradient>
    <linearGradient id="be-elite-g7" gradientUnits="userSpaceOnUse" x1="18" y1="2" x2="110" y2="126"><stop offset="0" stop-color="#6955d9"/><stop offset="1" stop-color="#42329a"/></linearGradient>
    <linearGradient id="be-elite-g8" gradientUnits="userSpaceOnUse" x1="18" y1="2" x2="110" y2="126"><stop offset="0" stop-color="#5b45d4"/><stop offset="1" stop-color="#42329a"/></linearGradient>
    <linearGradient id="be-elite-g9" gradientUnits="userSpaceOnUse" x1="18" y1="2" x2="110" y2="126"><stop offset="0" stop-color="#6550d8"/><stop offset="1" stop-color="#42329a"/></linearGradient>
    <linearGradient id="be-elite-g10" gradientUnits="userSpaceOnUse" x1="18" y1="2" x2="110" y2="126"><stop offset="0" stop-color="#8371e3"/><stop offset="1" stop-color="#42329a"/></linearGradient>
    <linearGradient id="be-elite-g11" gradientUnits="userSpaceOnUse" x1="18" y1="2" x2="110" y2="126"><stop offset="0" stop-color="#a798f0"/><stop offset="1" stop-color="#42329a"/></linearGradient>
    <linearGradient id="be-elite-g12" gradientUnits="userSpaceOnUse" x1="18" y1="2" x2="110" y2="126"><stop offset="0" stop-color="#beaeff"/><stop offset="1" stop-color="#6b53e3"/></linearGradient>
    <linearGradient id="be-elite-g13" gradientUnits="userSpaceOnUse" x1="18" y1="2" x2="110" y2="126"><stop offset="0" stop-color="#c1b3ff"/><stop offset="1" stop-color="#5b45d4"/></linearGradient>
    <radialGradient id="be-expert-g0"><stop offset="0" stop-color="#d63aff" stop-opacity="0.346"/><stop offset="1" stop-color="#d63aff" stop-opacity="0"/></radialGradient>
    <linearGradient id="be-expert-g1" gradientUnits="userSpaceOnUse" x1="18" y1="2" x2="110" y2="126"><stop offset="0" stop-color="#bf36ef"/><stop offset="1" stop-color="#3a1152"/></linearGradient>
    <linearGradient id="be-expert-g2" gradientUnits="userSpaceOnUse" x1="18" y1="2" x2="110" y2="126"><stop offset="0" stop-color="#b935eb"/><stop offset="1" stop-color="#3a1152"/></linearGradient>
    <linearGradient id="be-expert-g3" gradientUnits="userSpaceOnUse" x1="18" y1="2" x2="110" y2="126"><stop offset="0" stop-color="#b233e6"/><stop offset="1" stop-color="#3a1152"/></linearGradient>
    <linearGradient id="be-expert-g4" gradientUnits="userSpaceOnUse" x1="18" y1="2" x2="110" y2="126"><stop offset="0" stop-color="#bf36ef"/><stop offset="1" stop-color="#3a1152"/></linearGradient>
    <linearGradient id="be-expert-g5" gradientUnits="userSpaceOnUse" x1="18" y1="2" x2="110" y2="126"><stop offset="0" stop-color="#b935eb"/><stop offset="1" stop-color="#3a1152"/></linearGradient>
    <linearGradient id="be-expert-g6" gradientUnits="userSpaceOnUse" x1="18" y1="2" x2="110" y2="126"><stop offset="0" stop-color="#b233e6"/><stop offset="1" stop-color="#3a1152"/></linearGradient>
    <linearGradient id="be-expert-g7" gradientUnits="userSpaceOnUse" x1="18" y1="2" x2="110" y2="126"><stop offset="0" stop-color="#d594f3"/><stop offset="1" stop-color="#6f229b"/></linearGradient>
    <linearGradient id="be-expert-g8" gradientUnits="userSpaceOnUse" x1="18" y1="2" x2="110" y2="126"><stop offset="0" stop-color="#bc69e6"/><stop offset="1" stop-color="#6f229b"/></linearGradient>
    <linearGradient id="be-expert-g9" gradientUnits="userSpaceOnUse" x1="18" y1="2" x2="110" y2="126"><stop offset="0" stop-color="#a441db"/><stop offset="1" stop-color="#6f229b"/></linearGradient>
    <linearGradient id="be-expert-g10" gradientUnits="userSpaceOnUse" x1="18" y1="2" x2="110" y2="126"><stop offset="0" stop-color="#9a2fd6"/><stop offset="1" stop-color="#6f229b"/></linearGradient>
    <linearGradient id="be-expert-g11" gradientUnits="userSpaceOnUse" x1="18" y1="2" x2="110" y2="126"><stop offset="0" stop-color="#a23cda"/><stop offset="1" stop-color="#6f229b"/></linearGradient>
    <linearGradient id="be-expert-g12" gradientUnits="userSpaceOnUse" x1="18" y1="2" x2="110" y2="126"><stop offset="0" stop-color="#b761e4"/><stop offset="1" stop-color="#6f229b"/></linearGradient>
    <linearGradient id="be-expert-g13" gradientUnits="userSpaceOnUse" x1="18" y1="2" x2="110" y2="126"><stop offset="0" stop-color="#d18df1"/><stop offset="1" stop-color="#6f229b"/></linearGradient>
    <linearGradient id="be-expert-g14" gradientUnits="userSpaceOnUse" x1="18" y1="2" x2="110" y2="126"><stop offset="0" stop-color="#e3acf9"/><stop offset="1" stop-color="#6f229b"/></linearGradient>
    <linearGradient id="be-expert-g15" gradientUnits="userSpaceOnUse" x1="18" y1="2" x2="110" y2="126"><stop offset="0" stop-color="#e99fff"/><stop offset="1" stop-color="#af33e4"/></linearGradient>
    <linearGradient id="be-expert-g16" gradientUnits="userSpaceOnUse" x1="18" y1="2" x2="110" y2="126"><stop offset="0" stop-color="#eaa5ff"/><stop offset="1" stop-color="#9a2fd6"/></linearGradient>
    <linearGradient id="be-expert-g17" gradientUnits="userSpaceOnUse" x1="18" y1="2" x2="110" y2="126"><stop offset="0" stop-color="#efc0ff"/><stop offset="1" stop-color="#b835eb"/></linearGradient>
    <radialGradient id="be-apex-g0"><stop offset="0" stop-color="#ff7bf0" stop-opacity="0.378"/><stop offset="1" stop-color="#ff7bf0" stop-opacity="0"/></radialGradient>
    <linearGradient id="be-apex-g1" gradientUnits="userSpaceOnUse" x1="18" y1="2" x2="110" y2="126"><stop offset="0" stop-color="#e862e4"/><stop offset="1" stop-color="#4a1046"/></linearGradient>
    <linearGradient id="be-apex-g2" gradientUnits="userSpaceOnUse" x1="18" y1="2" x2="110" y2="126"><stop offset="0" stop-color="#e15be0"/><stop offset="1" stop-color="#4a1046"/></linearGradient>
    <linearGradient id="be-apex-g3" gradientUnits="userSpaceOnUse" x1="18" y1="2" x2="110" y2="126"><stop offset="0" stop-color="#da54dd"/><stop offset="1" stop-color="#4a1046"/></linearGradient>
    <linearGradient id="be-apex-g4" gradientUnits="userSpaceOnUse" x1="18" y1="2" x2="110" y2="126"><stop offset="0" stop-color="#d44dd9"/><stop offset="1" stop-color="#4a1046"/></linearGradient>
    <linearGradient id="be-apex-g5" gradientUnits="userSpaceOnUse" x1="18" y1="2" x2="110" y2="126"><stop offset="0" stop-color="#e862e4"/><stop offset="1" stop-color="#4a1046"/></linearGradient>
    <linearGradient id="be-apex-g6" gradientUnits="userSpaceOnUse" x1="18" y1="2" x2="110" y2="126"><stop offset="0" stop-color="#e15be0"/><stop offset="1" stop-color="#4a1046"/></linearGradient>
    <linearGradient id="be-apex-g7" gradientUnits="userSpaceOnUse" x1="18" y1="2" x2="110" y2="126"><stop offset="0" stop-color="#da54dd"/><stop offset="1" stop-color="#4a1046"/></linearGradient>
    <linearGradient id="be-apex-g8" gradientUnits="userSpaceOnUse" x1="18" y1="2" x2="110" y2="126"><stop offset="0" stop-color="#d44dd9"/><stop offset="1" stop-color="#4a1046"/></linearGradient>
    <linearGradient id="be-apex-g9" gradientUnits="userSpaceOnUse" x1="18" y1="2" x2="110" y2="126"><stop offset="0" stop-color="#edb9ee"/><stop offset="1" stop-color="#8c2792"/></linearGradient>
    <linearGradient id="be-apex-g10" gradientUnits="userSpaceOnUse" x1="18" y1="2" x2="110" y2="126"><stop offset="0" stop-color="#da83e1"/><stop offset="1" stop-color="#8c2792"/></linearGradient>
    <linearGradient id="be-apex-g11" gradientUnits="userSpaceOnUse" x1="18" y1="2" x2="110" y2="126"><stop offset="0" stop-color="#ca50d5"/><stop offset="1" stop-color="#8c2792"/></linearGradient>
    <linearGradient id="be-apex-g12" gradientUnits="userSpaceOnUse" x1="18" y1="2" x2="110" y2="126"><stop offset="0" stop-color="#c23ad0"/><stop offset="1" stop-color="#8c2792"/></linearGradient>
    <linearGradient id="be-apex-g13" gradientUnits="userSpaceOnUse" x1="18" y1="2" x2="110" y2="126"><stop offset="0" stop-color="#c74ad4"/><stop offset="1" stop-color="#8c2792"/></linearGradient>
    <linearGradient id="be-apex-g14" gradientUnits="userSpaceOnUse" x1="18" y1="2" x2="110" y2="126"><stop offset="0" stop-color="#d779df"/><stop offset="1" stop-color="#8c2792"/></linearGradient>
    <linearGradient id="be-apex-g15" gradientUnits="userSpaceOnUse" x1="18" y1="2" x2="110" y2="126"><stop offset="0" stop-color="#eab1ec"/><stop offset="1" stop-color="#8c2792"/></linearGradient>
    <linearGradient id="be-apex-g16" gradientUnits="userSpaceOnUse" x1="18" y1="2" x2="110" y2="126"><stop offset="0" stop-color="#f7d7f5"/><stop offset="1" stop-color="#8c2792"/></linearGradient>
    <linearGradient id="be-apex-g17" gradientUnits="userSpaceOnUse" x1="18" y1="2" x2="110" y2="126"><stop offset="0" stop-color="#f8daf6"/><stop offset="1" stop-color="#8c2792"/></linearGradient>
    <linearGradient id="be-apex-g18" gradientUnits="userSpaceOnUse" x1="18" y1="2" x2="110" y2="126"><stop offset="0" stop-color="#ffd3f8"/><stop offset="1" stop-color="#d751db"/></linearGradient>
    <linearGradient id="be-apex-g19" gradientUnits="userSpaceOnUse" x1="18" y1="2" x2="110" y2="126"><stop offset="0" stop-color="#ffd9f9"/><stop offset="1" stop-color="#c23ad0"/></linearGradient>
    <linearGradient id="be-apex-g20" gradientUnits="userSpaceOnUse" x1="18" y1="2" x2="110" y2="126"><stop offset="0" stop-color="#fff0fb"/><stop offset="1" stop-color="#e15be0"/></linearGradient>
  </defs>
  <g>
    <g transform="translate(38,227) scale(0.3438)" style="overflow:visible"><ellipse cx="64" cy="122" rx="28" ry="3.8" fill="#000" opacity="0.34"/><circle cx="64" cy="63" r="64" fill="url(#be-initiate-g0)"/><path d="M66.34 8.05A55 55 0 0 1 97.53 19.4L92.65 25.74A47 47 0 0 0 66 16.04Z" fill="url(#be-initiate-g1)"/><path d="M101.11 22.41A55 55 0 0 1 117.71 51.16L109.9 52.88A47 47 0 0 0 95.71 28.31Z" fill="rgba(255,255,255,.055)"/><path d="M118.52 55.76A55 55 0 0 1 112.76 88.45L105.66 84.75A47 47 0 0 0 110.59 56.81Z" fill="rgba(255,255,255,.055)"/><path d="M110.42 92.5A55 55 0 0 1 84.99 113.84L81.94 106.44A47 47 0 0 0 103.67 88.21Z" fill="rgba(255,255,255,.055)"/><path d="M80.6 115.44A55 55 0 0 1 47.4 115.44L49.82 107.81A47 47 0 0 0 78.18 107.81Z" fill="rgba(255,255,255,.055)"/><path d="M43.01 113.84A55 55 0 0 1 17.58 92.5L24.33 88.21A47 47 0 0 0 46.06 106.44Z" fill="rgba(255,255,255,.055)"/><path d="M15.24 88.45A55 55 0 0 1 9.48 55.76L17.41 56.81A47 47 0 0 0 22.34 84.75Z" fill="rgba(255,255,255,.055)"/><path d="M10.29 51.16A55 55 0 0 1 26.89 22.41L32.29 28.31A47 47 0 0 0 18.1 52.88Z" fill="rgba(255,255,255,.055)"/><path d="M30.47 19.4A55 55 0 0 1 61.66 8.05L62 16.04A47 47 0 0 0 35.35 25.74Z" fill="rgba(255,255,255,.055)"/><path d="M9.68 54.4A55 55 0 0 1 99.06 20.62L98.1 21.78A53.5 53.5 0 0 0 11.16 54.63Z" fill="#9aa8c4" opacity="0.5"/><path d="M46.42 49.35L46.42 76.65L58.78 76.65L72.18 63.26" fill="none" stroke="#1d2534" stroke-width="6.96"/><path d="M46.42 49.35L46.42 76.65L58.78 76.65L72.18 63.26" fill="none" stroke="url(#be-initiate-g2)" stroke-width="6.96"/><circle cx="80.68" cy="54.76" r="3.9" fill="url(#be-initiate-g3)"/><ellipse cx="79.57" cy="53.64" rx="1.11" ry="0.7" fill="#fff" opacity="0.4" transform="rotate(-30 80.68 54.76)"/></g>
    <g transform="translate(129,227) scale(0.3438)" style="overflow:visible"><ellipse cx="64" cy="122" rx="28" ry="3.8" fill="#000" opacity="0.34"/><circle cx="64" cy="63" r="64" fill="url(#be-apprentice-g0)"/><path d="M66.34 8.05A55 55 0 0 1 97.53 19.4L92.65 25.74A47 47 0 0 0 66 16.04Z" fill="url(#be-apprentice-g1)"/><path d="M101.11 22.41A55 55 0 0 1 117.71 51.16L109.9 52.88A47 47 0 0 0 95.71 28.31Z" fill="url(#be-apprentice-g2)"/><path d="M118.52 55.76A55 55 0 0 1 112.76 88.45L105.66 84.75A47 47 0 0 0 110.59 56.81Z" fill="rgba(255,255,255,.055)"/><path d="M110.42 92.5A55 55 0 0 1 84.99 113.84L81.94 106.44A47 47 0 0 0 103.67 88.21Z" fill="rgba(255,255,255,.055)"/><path d="M80.6 115.44A55 55 0 0 1 47.4 115.44L49.82 107.81A47 47 0 0 0 78.18 107.81Z" fill="rgba(255,255,255,.055)"/><path d="M43.01 113.84A55 55 0 0 1 17.58 92.5L24.33 88.21A47 47 0 0 0 46.06 106.44Z" fill="rgba(255,255,255,.055)"/><path d="M15.24 88.45A55 55 0 0 1 9.48 55.76L17.41 56.81A47 47 0 0 0 22.34 84.75Z" fill="rgba(255,255,255,.055)"/><path d="M10.29 51.16A55 55 0 0 1 26.89 22.41L32.29 28.31A47 47 0 0 0 18.1 52.88Z" fill="rgba(255,255,255,.055)"/><path d="M30.47 19.4A55 55 0 0 1 61.66 8.05L62 16.04A47 47 0 0 0 35.35 25.74Z" fill="rgba(255,255,255,.055)"/><path d="M9.68 54.4A55 55 0 0 1 99.06 20.62L98.1 21.78A53.5 53.5 0 0 0 11.16 54.63Z" fill="#a8c4e4" opacity="0.5"/><path d="M46.42 49.35L46.42 76.65L58.78 76.65L72.18 63.26" fill="none" stroke="#202e44" stroke-width="6.96"/><path d="M46.42 49.35L46.42 76.65L58.78 76.65L72.18 63.26" fill="none" stroke="url(#be-apprentice-g3)" stroke-width="6.96"/><circle cx="80.68" cy="54.76" r="3.9" fill="url(#be-apprentice-g4)"/><ellipse cx="79.57" cy="53.64" rx="1.11" ry="0.7" fill="#fff" opacity="0.4" transform="rotate(-30 80.68 54.76)"/></g>
    <g transform="translate(220,227) scale(0.3438)" style="overflow:visible"><ellipse cx="64" cy="122" rx="28" ry="3.8" fill="#000" opacity="0.34"/><circle cx="64" cy="63" r="64" fill="url(#be-trainee-g0)"/><path d="M66.34 8.05A55 55 0 0 1 97.53 19.4L92.65 25.74A47 47 0 0 0 66 16.04Z" fill="url(#be-trainee-g1)"/><path d="M101.11 22.41A55 55 0 0 1 117.71 51.16L109.9 52.88A47 47 0 0 0 95.71 28.31Z" fill="url(#be-trainee-g2)"/><path d="M118.52 55.76A55 55 0 0 1 112.76 88.45L105.66 84.75A47 47 0 0 0 110.59 56.81Z" fill="url(#be-trainee-g3)"/><path d="M110.42 92.5A55 55 0 0 1 84.99 113.84L81.94 106.44A47 47 0 0 0 103.67 88.21Z" fill="rgba(255,255,255,.055)"/><path d="M80.6 115.44A55 55 0 0 1 47.4 115.44L49.82 107.81A47 47 0 0 0 78.18 107.81Z" fill="rgba(255,255,255,.055)"/><path d="M43.01 113.84A55 55 0 0 1 17.58 92.5L24.33 88.21A47 47 0 0 0 46.06 106.44Z" fill="rgba(255,255,255,.055)"/><path d="M15.24 88.45A55 55 0 0 1 9.48 55.76L17.41 56.81A47 47 0 0 0 22.34 84.75Z" fill="rgba(255,255,255,.055)"/><path d="M10.29 51.16A55 55 0 0 1 26.89 22.41L32.29 28.31A47 47 0 0 0 18.1 52.88Z" fill="rgba(255,255,255,.055)"/><path d="M30.47 19.4A55 55 0 0 1 61.66 8.05L62 16.04A47 47 0 0 0 35.35 25.74Z" fill="rgba(255,255,255,.055)"/><path d="M9.68 54.4A55 55 0 0 1 99.06 20.62L98.1 21.78A53.5 53.5 0 0 0 11.16 54.63Z" fill="#9fd8ec" opacity="0.5"/><path d="M46.42 49.35L46.42 76.65L58.78 76.65L72.18 63.26" fill="none" stroke="#153a4d" stroke-width="6.96"/><path d="M46.42 49.35L46.42 76.65L58.78 76.65L72.18 63.26" fill="none" stroke="url(#be-trainee-g4)" stroke-width="6.96"/><circle cx="80.68" cy="54.76" r="3.9" fill="url(#be-trainee-g5)"/><ellipse cx="79.57" cy="53.64" rx="1.11" ry="0.7" fill="#fff" opacity="0.4" transform="rotate(-30 80.68 54.76)"/></g>
    <g transform="translate(311,227) scale(0.3438)" style="overflow:visible"><ellipse cx="64" cy="122" rx="28" ry="3.8" fill="#000" opacity="0.34"/><circle cx="64" cy="64" r="64" fill="url(#be-athlete-g0)"/><polygon points="8,53 -2,50 1,60 8,61" fill="url(#be-athlete-g1)"/><polygon points="120,53 130,50 127,60 120,61" fill="url(#be-athlete-g2)"/><path d="M66.34 9.05A55 55 0 0 1 97.53 20.4L92.65 26.74A47 47 0 0 0 66 17.04Z" fill="url(#be-athlete-g3)"/><path d="M101.11 23.41A55 55 0 0 1 117.71 52.16L109.9 53.88A47 47 0 0 0 95.71 29.31Z" fill="url(#be-athlete-g4)"/><path d="M118.52 56.76A55 55 0 0 1 112.76 89.45L105.66 85.75A47 47 0 0 0 110.59 57.81Z" fill="url(#be-athlete-g5)"/><path d="M110.42 93.5A55 55 0 0 1 84.99 114.84L81.94 107.44A47 47 0 0 0 103.67 89.21Z" fill="url(#be-athlete-g6)"/><path d="M80.6 116.44A55 55 0 0 1 47.4 116.44L49.82 108.81A47 47 0 0 0 78.18 108.81Z" fill="rgba(255,255,255,.055)"/><path d="M43.01 114.84A55 55 0 0 1 17.58 93.5L24.33 89.21A47 47 0 0 0 46.06 107.44Z" fill="rgba(255,255,255,.055)"/><path d="M15.24 89.45A55 55 0 0 1 9.48 56.76L17.41 57.81A47 47 0 0 0 22.34 85.75Z" fill="rgba(255,255,255,.055)"/><path d="M10.29 52.16A55 55 0 0 1 26.89 23.41L32.29 29.31A47 47 0 0 0 18.1 53.88Z" fill="rgba(255,255,255,.055)"/><path d="M30.47 20.4A55 55 0 0 1 61.66 9.05L62 17.04A47 47 0 0 0 35.35 26.74Z" fill="rgba(255,255,255,.055)"/><path d="M9.68 55.4A55 55 0 0 1 99.06 21.62L98.1 22.78A53.5 53.5 0 0 0 11.16 55.63Z" fill="#a8ddf7" opacity="0.5"/><path d="M46.42 50.35L46.42 77.65L58.78 77.65L72.18 64.26" fill="none" stroke="#124667" stroke-width="6.96"/><path d="M46.42 50.35L46.42 77.65L58.78 77.65L72.18 64.26" fill="none" stroke="url(#be-athlete-g7)" stroke-width="6.96"/><circle cx="80.68" cy="55.76" r="3.9" fill="url(#be-athlete-g8)"/><ellipse cx="79.57" cy="54.64" rx="1.11" ry="0.7" fill="#fff" opacity="0.4" transform="rotate(-30 80.68 55.76)"/></g>
    <g transform="translate(402,227) scale(0.3438)" style="overflow:visible"><ellipse cx="64" cy="122" rx="28" ry="3.8" fill="#000" opacity="0.34"/><circle cx="64" cy="64" r="64" fill="url(#be-lifter-g0)"/><polygon points="8,53 -7,50 -2.5,60 8,61" fill="url(#be-lifter-g1)"/><polygon points="120,53 135,50 130.5,60 120,61" fill="url(#be-lifter-g2)"/><path d="M66.34 9.05A55 55 0 0 1 97.53 20.4L92.65 26.74A47 47 0 0 0 66 17.04Z" fill="url(#be-lifter-g3)"/><path d="M101.11 23.41A55 55 0 0 1 117.71 52.16L109.9 53.88A47 47 0 0 0 95.71 29.31Z" fill="url(#be-lifter-g4)"/><path d="M118.52 56.76A55 55 0 0 1 112.76 89.45L105.66 85.75A47 47 0 0 0 110.59 57.81Z" fill="url(#be-lifter-g5)"/><path d="M110.42 93.5A55 55 0 0 1 84.99 114.84L81.94 107.44A47 47 0 0 0 103.67 89.21Z" fill="url(#be-lifter-g6)"/><path d="M80.6 116.44A55 55 0 0 1 47.4 116.44L49.82 108.81A47 47 0 0 0 78.18 108.81Z" fill="url(#be-lifter-g7)"/><path d="M43.01 114.84A55 55 0 0 1 17.58 93.5L24.33 89.21A47 47 0 0 0 46.06 107.44Z" fill="rgba(255,255,255,.055)"/><path d="M15.24 89.45A55 55 0 0 1 9.48 56.76L17.41 57.81A47 47 0 0 0 22.34 85.75Z" fill="rgba(255,255,255,.055)"/><path d="M10.29 52.16A55 55 0 0 1 26.89 23.41L32.29 29.31A47 47 0 0 0 18.1 53.88Z" fill="rgba(255,255,255,.055)"/><path d="M30.47 20.4A55 55 0 0 1 61.66 9.05L62 17.04A47 47 0 0 0 35.35 26.74Z" fill="rgba(255,255,255,.055)"/><path d="M9.68 55.4A55 55 0 0 1 99.06 21.62L98.1 22.78A53.5 53.5 0 0 0 11.16 55.63Z" fill="#b3d2ff" opacity="0.5"/><path d="M46.42 50.35L46.42 77.65L58.78 77.65L72.18 64.26" fill="none" stroke="#163a76" stroke-width="6.96"/><path d="M46.42 50.35L46.42 77.65L58.78 77.65L72.18 64.26" fill="none" stroke="url(#be-lifter-g8)" stroke-width="6.96"/><circle cx="80.68" cy="55.76" r="3.9" fill="url(#be-lifter-g9)"/><ellipse cx="79.57" cy="54.64" rx="1.11" ry="0.7" fill="#fff" opacity="0.4" transform="rotate(-30 80.68 55.76)"/></g>
    <g transform="translate(493,227) scale(0.3438)" style="overflow:visible"><ellipse cx="64" cy="122" rx="28" ry="3.8" fill="#000" opacity="0.34"/><circle cx="64" cy="64" r="64" fill="url(#be-advanced-g0)"/><polygon points="8,53 -14,50 -7.4,60 8,61" fill="url(#be-advanced-g1)"/><polygon points="8,61 -10.48,56.4 -4.94,68 8,69" fill="url(#be-advanced-g2)"/><polygon points="120,53 142,50 135.4,60 120,61" fill="url(#be-advanced-g3)"/><polygon points="120,61 138.48,56.4 132.94,68 120,69" fill="url(#be-advanced-g4)"/><path d="M66.34 9.05A55 55 0 0 1 97.53 20.4L92.65 26.74A47 47 0 0 0 66 17.04Z" fill="url(#be-advanced-g5)"/><path d="M101.11 23.41A55 55 0 0 1 117.71 52.16L109.9 53.88A47 47 0 0 0 95.71 29.31Z" fill="url(#be-advanced-g6)"/><path d="M118.52 56.76A55 55 0 0 1 112.76 89.45L105.66 85.75A47 47 0 0 0 110.59 57.81Z" fill="url(#be-advanced-g7)"/><path d="M110.42 93.5A55 55 0 0 1 84.99 114.84L81.94 107.44A47 47 0 0 0 103.67 89.21Z" fill="url(#be-advanced-g8)"/><path d="M80.6 116.44A55 55 0 0 1 47.4 116.44L49.82 108.81A47 47 0 0 0 78.18 108.81Z" fill="url(#be-advanced-g9)"/><path d="M43.01 114.84A55 55 0 0 1 17.58 93.5L24.33 89.21A47 47 0 0 0 46.06 107.44Z" fill="url(#be-advanced-g10)"/><path d="M15.24 89.45A55 55 0 0 1 9.48 56.76L17.41 57.81A47 47 0 0 0 22.34 85.75Z" fill="rgba(255,255,255,.055)"/><path d="M10.29 52.16A55 55 0 0 1 26.89 23.41L32.29 29.31A47 47 0 0 0 18.1 53.88Z" fill="rgba(255,255,255,.055)"/><path d="M30.47 20.4A55 55 0 0 1 61.66 9.05L62 17.04A47 47 0 0 0 35.35 26.74Z" fill="rgba(255,255,255,.055)"/><path d="M9.68 55.4A55 55 0 0 1 99.06 21.62L98.1 22.78A53.5 53.5 0 0 0 11.16 55.63Z" fill="#c3c8ff" opacity="0.5"/><path d="M46.42 50.35L46.42 77.65L58.78 77.65L72.18 64.26" fill="none" stroke="#262d81" stroke-width="6.96"/><path d="M46.42 50.35L46.42 77.65L58.78 77.65L72.18 64.26" fill="none" stroke="url(#be-advanced-g11)" stroke-width="6.96"/><circle cx="80.68" cy="55.76" r="3.9" fill="url(#be-advanced-g12)"/><ellipse cx="79.57" cy="54.64" rx="1.11" ry="0.7" fill="#fff" opacity="0.4" transform="rotate(-30 80.68 55.76)"/></g>
    <g transform="translate(584,227) scale(0.3438)" style="overflow:visible"><ellipse cx="64" cy="122" rx="28" ry="3.8" fill="#000" opacity="0.34"/><circle cx="64" cy="64" r="64" fill="url(#be-elite-g0)"/><polygon points="8,53 -14,50 -7.4,60 8,61" fill="url(#be-elite-g1)"/><polygon points="8,61 -10.48,56.4 -4.94,68 8,69" fill="url(#be-elite-g2)"/><polygon points="120,53 142,50 135.4,60 120,61" fill="url(#be-elite-g3)"/><polygon points="120,61 138.48,56.4 132.94,68 120,69" fill="url(#be-elite-g4)"/><path d="M45.98 107.46 Q4.64 82.02 14.18 39.62" stroke="#cfc4ff" stroke-width="2.6" opacity="0.6"/><path d="M82.02 107.46 Q123.36 82.02 113.82 39.62" stroke="#cfc4ff" stroke-width="2.6" opacity="0.6"/><path d="M66.34 9.05A55 55 0 0 1 97.53 20.4L92.65 26.74A47 47 0 0 0 66 17.04Z" fill="url(#be-elite-g5)"/><path d="M101.11 23.41A55 55 0 0 1 117.71 52.16L109.9 53.88A47 47 0 0 0 95.71 29.31Z" fill="url(#be-elite-g6)"/><path d="M118.52 56.76A55 55 0 0 1 112.76 89.45L105.66 85.75A47 47 0 0 0 110.59 57.81Z" fill="url(#be-elite-g7)"/><path d="M110.42 93.5A55 55 0 0 1 84.99 114.84L81.94 107.44A47 47 0 0 0 103.67 89.21Z" fill="url(#be-elite-g8)"/><path d="M80.6 116.44A55 55 0 0 1 47.4 116.44L49.82 108.81A47 47 0 0 0 78.18 108.81Z" fill="url(#be-elite-g9)"/><path d="M43.01 114.84A55 55 0 0 1 17.58 93.5L24.33 89.21A47 47 0 0 0 46.06 107.44Z" fill="url(#be-elite-g10)"/><path d="M15.24 89.45A55 55 0 0 1 9.48 56.76L17.41 57.81A47 47 0 0 0 22.34 85.75Z" fill="url(#be-elite-g11)"/><path d="M10.29 52.16A55 55 0 0 1 26.89 23.41L32.29 29.31A47 47 0 0 0 18.1 53.88Z" fill="rgba(255,255,255,.055)"/><path d="M30.47 20.4A55 55 0 0 1 61.66 9.05L62 17.04A47 47 0 0 0 35.35 26.74Z" fill="rgba(255,255,255,.055)"/><path d="M9.68 55.4A55 55 0 0 1 99.06 21.62L98.1 22.78A53.5 53.5 0 0 0 11.16 55.63Z" fill="#cfc4ff" opacity="0.5"/><path d="M46.42 50.35L46.42 77.65L58.78 77.65L72.18 64.26" fill="none" stroke="#3b2c89" stroke-width="6.96"/><path d="M46.42 50.35L46.42 77.65L58.78 77.65L72.18 64.26" fill="none" stroke="url(#be-elite-g12)" stroke-width="6.96"/><circle cx="80.68" cy="55.76" r="3.9" fill="url(#be-elite-g13)"/><ellipse cx="79.57" cy="54.64" rx="1.11" ry="0.7" fill="#fff" opacity="0.4" transform="rotate(-30 80.68 55.76)"/></g>
    <g transform="translate(675,227) scale(0.3438)" style="overflow:visible"><ellipse cx="64" cy="122" rx="28" ry="3.8" fill="#000" opacity="0.34"/><circle cx="64" cy="64" r="64" fill="url(#be-expert-g0)"/><polygon points="8,53 -24,50 -14.4,60 8,61" fill="url(#be-expert-g1)"/><polygon points="8,61 -18.88,56.4 -10.82,68 8,69" fill="url(#be-expert-g2)"/><polygon points="8,69 -13.76,62.8 -7.23,76 8,77" fill="url(#be-expert-g3)"/><polygon points="120,53 152,50 142.4,60 120,61" fill="url(#be-expert-g4)"/><polygon points="120,61 146.88,56.4 138.82,68 120,69" fill="url(#be-expert-g5)"/><polygon points="120,69 141.76,62.8 135.23,76 120,77" fill="url(#be-expert-g6)"/><path d="M45.98 107.46 Q4.64 82.02 14.18 39.62" stroke="#efc0ff" stroke-width="2.6" opacity="0.42"/><path d="M82.02 107.46 Q123.36 82.02 113.82 39.62" stroke="#efc0ff" stroke-width="2.6" opacity="0.42"/><path d="M66.34 9.05A55 55 0 0 1 97.53 20.4L92.65 26.74A47 47 0 0 0 66 17.04Z" fill="url(#be-expert-g7)"/><path d="M101.11 23.41A55 55 0 0 1 117.71 52.16L109.9 53.88A47 47 0 0 0 95.71 29.31Z" fill="url(#be-expert-g8)"/><path d="M118.52 56.76A55 55 0 0 1 112.76 89.45L105.66 85.75A47 47 0 0 0 110.59 57.81Z" fill="url(#be-expert-g9)"/><path d="M110.42 93.5A55 55 0 0 1 84.99 114.84L81.94 107.44A47 47 0 0 0 103.67 89.21Z" fill="url(#be-expert-g10)"/><path d="M80.6 116.44A55 55 0 0 1 47.4 116.44L49.82 108.81A47 47 0 0 0 78.18 108.81Z" fill="url(#be-expert-g11)"/><path d="M43.01 114.84A55 55 0 0 1 17.58 93.5L24.33 89.21A47 47 0 0 0 46.06 107.44Z" fill="url(#be-expert-g12)"/><path d="M15.24 89.45A55 55 0 0 1 9.48 56.76L17.41 57.81A47 47 0 0 0 22.34 85.75Z" fill="url(#be-expert-g13)"/><path d="M10.29 52.16A55 55 0 0 1 26.89 23.41L32.29 29.31A47 47 0 0 0 18.1 53.88Z" fill="url(#be-expert-g14)"/><path d="M30.47 20.4A55 55 0 0 1 61.66 9.05L62 17.04A47 47 0 0 0 35.35 26.74Z" fill="rgba(255,255,255,.055)"/><path d="M9.68 55.4A55 55 0 0 1 99.06 21.62L98.1 22.78A53.5 53.5 0 0 0 11.16 55.63Z" fill="#efc0ff" opacity="0.5"/><path d="M46.42 50.35L46.42 77.65L58.78 77.65L72.18 64.26" fill="none" stroke="#621e89" stroke-width="6.96"/><path d="M46.42 50.35L46.42 77.65L58.78 77.65L72.18 64.26" fill="none" stroke="url(#be-expert-g15)" stroke-width="6.96"/><circle cx="80.68" cy="55.76" r="3.9" fill="url(#be-expert-g16)"/><ellipse cx="79.57" cy="54.64" rx="1.11" ry="0.7" fill="#fff" opacity="0.4" transform="rotate(-30 80.68 55.76)"/><polygon points="52,4 56.8,-4.8 61.6,1.6 64,-7.2 66.4,1.6 71.2,-4.8 76,4 74.4,8 53.6,8" fill="url(#be-expert-g17)"/></g>
    <g transform="translate(766,227) scale(0.3438)" style="overflow:visible"><ellipse cx="64" cy="122" rx="28" ry="3.8" fill="#000" opacity="0.34"/><circle cx="64" cy="64" r="64" fill="url(#be-apex-g0)"/><line x1="83.47" y1="4.08" x2="87.49" y2="-8.28" stroke="#fff0fb" stroke-width="1.6" opacity="0.55"/><line x1="114.97" y1="26.97" x2="125.49" y2="19.33" stroke="#fff0fb" stroke-width="1.6" opacity="0.55"/><line x1="127" y1="64" x2="140" y2="64" stroke="#fff0fb" stroke-width="1.6" opacity="0.55"/><line x1="114.97" y1="101.03" x2="125.49" y2="108.67" stroke="#fff0fb" stroke-width="1.6" opacity="0.55"/><line x1="83.47" y1="123.92" x2="87.49" y2="136.28" stroke="#fff0fb" stroke-width="1.6" opacity="0.55"/><line x1="44.53" y1="123.92" x2="40.51" y2="136.28" stroke="#fff0fb" stroke-width="1.6" opacity="0.55"/><line x1="13.03" y1="101.03" x2="2.51" y2="108.67" stroke="#fff0fb" stroke-width="1.6" opacity="0.55"/><line x1="1" y1="64" x2="-12" y2="64" stroke="#fff0fb" stroke-width="1.6" opacity="0.55"/><line x1="13.03" y1="26.97" x2="2.51" y2="19.33" stroke="#fff0fb" stroke-width="1.6" opacity="0.55"/><line x1="44.53" y1="4.08" x2="40.51" y2="-8.28" stroke="#fff0fb" stroke-width="1.6" opacity="0.55"/><polygon points="8,53 -32,50 -20,60 8,61" fill="url(#be-apex-g1)"/><polygon points="8,61 -25.6,56.4 -15.52,68 8,69" fill="url(#be-apex-g2)"/><polygon points="8,69 -19.2,62.8 -11.04,76 8,77" fill="url(#be-apex-g3)"/><polygon points="8,77 -12.8,69.2 -6.56,84 8,85" fill="url(#be-apex-g4)"/><polygon points="120,53 160,50 148,60 120,61" fill="url(#be-apex-g5)"/><polygon points="120,61 153.6,56.4 143.52,68 120,69" fill="url(#be-apex-g6)"/><polygon points="120,69 147.2,62.8 139.04,76 120,77" fill="url(#be-apex-g7)"/><polygon points="120,77 140.8,69.2 134.56,84 120,85" fill="url(#be-apex-g8)"/><path d="M45.98 107.46 Q4.64 82.02 14.18 39.62" stroke="#fff0fb" stroke-width="2.6" opacity="0.42"/><path d="M82.02 107.46 Q123.36 82.02 113.82 39.62" stroke="#fff0fb" stroke-width="2.6" opacity="0.42"/><path d="M66.34 9.05A55 55 0 0 1 97.53 20.4L92.65 26.74A47 47 0 0 0 66 17.04Z" fill="url(#be-apex-g9)"/><path d="M101.11 23.41A55 55 0 0 1 117.71 52.16L109.9 53.88A47 47 0 0 0 95.71 29.31Z" fill="url(#be-apex-g10)"/><path d="M118.52 56.76A55 55 0 0 1 112.76 89.45L105.66 85.75A47 47 0 0 0 110.59 57.81Z" fill="url(#be-apex-g11)"/><path d="M110.42 93.5A55 55 0 0 1 84.99 114.84L81.94 107.44A47 47 0 0 0 103.67 89.21Z" fill="url(#be-apex-g12)"/><path d="M80.6 116.44A55 55 0 0 1 47.4 116.44L49.82 108.81A47 47 0 0 0 78.18 108.81Z" fill="url(#be-apex-g13)"/><path d="M43.01 114.84A55 55 0 0 1 17.58 93.5L24.33 89.21A47 47 0 0 0 46.06 107.44Z" fill="url(#be-apex-g14)"/><path d="M15.24 89.45A55 55 0 0 1 9.48 56.76L17.41 57.81A47 47 0 0 0 22.34 85.75Z" fill="url(#be-apex-g15)"/><path d="M10.29 52.16A55 55 0 0 1 26.89 23.41L32.29 29.31A47 47 0 0 0 18.1 53.88Z" fill="url(#be-apex-g16)"/><path d="M30.47 20.4A55 55 0 0 1 61.66 9.05L62 17.04A47 47 0 0 0 35.35 26.74Z" fill="url(#be-apex-g17)"/><path d="M9.68 55.4A55 55 0 0 1 99.06 21.62L98.1 22.78A53.5 53.5 0 0 0 11.16 55.63Z" fill="#fff0fb" opacity="0.5"/><path d="M46.42 50.35L46.42 77.65L58.78 77.65L72.18 64.26" fill="none" stroke="#7c2280" stroke-width="6.96"/><path d="M46.42 50.35L46.42 77.65L58.78 77.65L72.18 64.26" fill="none" stroke="url(#be-apex-g18)" stroke-width="6.96"/><circle cx="80.68" cy="55.76" r="3.9" fill="url(#be-apex-g19)"/><ellipse cx="79.57" cy="54.64" rx="1.11" ry="0.7" fill="#fff" opacity="0.4" transform="rotate(-30 80.68 55.76)"/><polygon points="52,4 56.8,-4.8 61.6,1.6 64,-7.2 66.4,1.6 71.2,-4.8 76,4 74.4,8 53.6,8" fill="url(#be-apex-g20)"/><circle cx="64" cy="64" r="59" fill="none" stroke="#fff0fb" stroke-width="1.5" opacity="0.75"/></g>
  </g>

  <!-- overall-rank stat tile, right side -->
  <g transform="translate(880,64)">
    <rect width="260" height="150" rx="16" fill="#161c2d" stroke="rgba(255,255,255,0.20)"/>
    <text x="22" y="36" font-size="13" fill="#98a2c0" letter-spacing="1">OVERALL RANK</text>
    <text x="22" y="86" font-family="'Unbounded',system-ui,sans-serif" font-weight="800" font-size="32" fill="#ffd24a">ADVANCED II</text>
    <text x="22" y="118" font-size="13" fill="#98a2c0">Personal best: Elite I</text>
    <rect x="22" y="130" width="216" height="6" rx="3" fill="rgba(255,255,255,0.14)"/>
    <rect x="22" y="130" width="146" height="6" rx="3" fill="#ffd24a"/>
  </g>
</svg>
